<svg xmlns="http://www.w3.org/2000/svg" viewBox="0 0 27.36 11.78"><defs><style>.cls-1{fill:#91b0d9;}</style></defs><g id="Capa_2" data-name="Capa 2"><g id="Capa_1-2" data-name="Capa 1"><path class="cls-1" d="M5.67,6.75A2.16,2.16,0,1,1,3.51,8.91,2.16,2.16,0,0,1,5.67,6.75m0,3.6a1.45,1.45,0,0,0,0-2.89,1.45,1.45,0,1,0,0,2.89M5.67,6A2.87,2.87,0,1,0,8.54,8.91,2.88,2.88,0,0,0,5.67,6Zm0,3.6a.73.73,0,1,1,.73-.73.73.73,0,0,1-.73.73Z"/><path class="cls-1" d="M22.1,6.75a2.16,2.16,0,1,1-2.16,2.16A2.16,2.16,0,0,1,22.1,6.75m0,3.6a1.45,1.45,0,0,0,0-2.89,1.45,1.45,0,1,0,0,2.89M22.1,6A2.87,2.87,0,1,0,25,8.91,2.88,2.88,0,0,0,22.1,6Zm0,3.6a.73.73,0,1,1,.73-.73.73.73,0,0,1-.73.73Z"/><path class="cls-1" d="M5.67,8.37a.54.54,0,1,1-.54.54.54.54,0,0,1,.54-.54m0-.71A1.25,1.25,0,1,0,6.92,8.91,1.25,1.25,0,0,0,5.67,7.66Z"/><path class="cls-1" d="M22.1,8.37a.54.54,0,1,1-.54.54.54.54,0,0,1,.54-.54m0-.71a1.25,1.25,0,1,0,1.25,1.25A1.25,1.25,0,0,0,22.1,7.66Z"/><path class="cls-1" d="M11.18.71a19,19,0,0,1,3.6.29,10.9,10.9,0,0,1,4.36,2.74s0,0,.05,0A15.76,15.76,0,0,1,25,4.87h0l.51.24h0l.07.08v0l.07.08v0l.05.08h0a.41.41,0,0,1,.05.09l0,0a.41.41,0,0,0,.05.09h0l.05.09h0a1,1,0,0,1,0,.1h0a1,1,0,0,0,0,.1h0a.69.69,0,0,1,0,.1v0l0,.1h0l0,.1h0l0,.1h0a1.6,1.6,0,0,1,.05.21h0l0,.11h0a6.51,6.51,0,0,1,.12,1.68v.06l.2.66a.16.16,0,0,1-.14.21l-1.38.17h0a.17.17,0,0,1-.16-.19,3,3,0,0,0,0-.42A2.88,2.88,0,0,0,22.1,6H22a2.87,2.87,0,0,0-2.76,2.87,2.84,2.84,0,0,0,.07.66.16.16,0,0,1-.15.2H8.62a.16.16,0,0,1-.15-.2,2.84,2.84,0,0,0,.07-.66A2.87,2.87,0,0,0,5.78,6H5.67A2.88,2.88,0,0,0,2.8,8.91a1.93,1.93,0,0,0,0,.24.17.17,0,0,1-.17.18h0L1.45,9a.81.81,0,0,1-.6-.69L.72,7.06A.25.25,0,0,1,.8,6.84L1,6.61a.28.28,0,0,0,.09-.2A16.27,16.27,0,0,1,1.35,3.9a.38.38,0,0,1,.31-.31l1.82-.3a.38.38,0,0,0,.17-.08A27,27,0,0,1,7,1.1,1.28,1.28,0,0,1,7.42,1,28.51,28.51,0,0,1,11.18.71M11.57,4a.16.16,0,0,0,.16-.19l-.46-2.24a.16.16,0,0,0-.16-.13H10.6c-.7,0-1.42.06-2.13.13a.16.16,0,0,0-.13.08l-1.16,2a.17.17,0,0,0,.14.25c1.47,0,2.91,0,4.24.09h0m7.13.47a.06.06,0,0,0,0-.11l-.09-.09a10.48,10.48,0,0,0-4-2.56,17.21,17.21,0,0,0-2.45-.25h0a.16.16,0,0,0-.16.19l.47,2.27a.17.17,0,0,0,.15.13c3.07.14,5.42.36,6.06.42h0M4.06,3.94h0l2.06,0a.16.16,0,0,0,.14-.08L7.39,1.87a.06.06,0,0,0-.06-.09h0A27.84,27.84,0,0,0,4,3.83a.06.06,0,0,0,0,.11M2.36,5.39a.16.16,0,0,0,.15-.12l.17-.6a.17.17,0,0,0-.12-.21l-.67-.14h0a.16.16,0,0,0-.16.14c0,.2-.06.43-.08.67a.16.16,0,0,0,.13.17l.59.1h0M25.71,6.55a.1.1,0,0,0,.1-.13,3.21,3.21,0,0,0-.38-.82.17.17,0,0,0-.13-.07l-1.08,0h0a.1.1,0,0,0-.09.13l.31.79a.16.16,0,0,0,.15.1l1.13,0h0M11.18,0V0A28.15,28.15,0,0,0,7.32.27a2,2,0,0,0-.63.2A27.65,27.65,0,0,0,3.28,2.6l-1.73.28a1.11,1.11,0,0,0-.9.9A15.58,15.58,0,0,0,.39,6.23l-.1.1A1,1,0,0,0,0,7.14L.14,8.42a1.52,1.52,0,0,0,1.13,1.3L2.43,10l.21,0a.88.88,0,0,0,.65-.28.92.92,0,0,0,.23-.67,1.09,1.09,0,0,1,0-.18A2.16,2.16,0,0,1,5.67,6.75h.08a2.16,2.16,0,0,1,2,2.66.88.88,0,0,0,.85,1.07H19.15A.88.88,0,0,0,20,9.41a2.14,2.14,0,0,1-.06-.5A2.17,2.17,0,0,1,22,6.75h.08a2.16,2.16,0,0,1,2.16,2.16c0,.1,0,.21,0,.31a.87.87,0,0,0,.2.71.89.89,0,0,0,.66.3h.11l1.38-.17a.89.89,0,0,0,.63-.39.9.9,0,0,0,.11-.73l-.17-.57A7.68,7.68,0,0,0,27,6.58h0l0-.12h0a2.17,2.17,0,0,0-.07-.24h0a.56.56,0,0,0,0-.12h0a.76.76,0,0,0,0-.11h0s0-.08,0-.12v0l-.05-.12h0a1.17,1.17,0,0,1,0-.11h0a1.17,1.17,0,0,0-.05-.11v0h0l-.06-.11h0a.67.67,0,0,0-.06-.12v0L26.41,5V5l-.07-.1h0l-.08-.11,0,0h0l-.09-.11-.08-.1-.05,0h0l-.05,0-.05,0-.06,0-.53-.24,0,0h0a16.36,16.36,0,0,0-5.8-1.14,16.35,16.35,0,0,0-1.38-1.16A8.45,8.45,0,0,0,14.93.31h0A20.24,20.24,0,0,0,11.18,0ZM8.82,2.25c.6,0,1.21-.09,1.8-.1h0l.23,1.1L8.27,3.19l.55-.94Zm4.27,1.09L12.86,2.2a15,15,0,0,1,1.62.2,6.55,6.55,0,0,1,2.28,1.18c-1-.08-2.24-.16-3.67-.24Z"/></g></g></svg>