<svg xmlns="http://www.w3.org/2000/svg" viewBox="0 0 15.69 27.75"><defs><style>.cls-1{fill:#f2ae72;}</style></defs><g id="Capa_2" data-name="Capa 2"><g id="Capa_1-2" data-name="Capa 1"><path class="cls-1" d="M7.49,5.7a2.09,2.09,0,0,1,.6.1c1.17.36,2.2,1.06.81,5.15-.6,1.73-.94,2.76-1.19,3.4a.42.42,0,0,0,0,.31l2.7,4.43a1.43,1.43,0,0,1,.18.5l.82,5.95a1.31,1.31,0,0,1-1,1.46l-.28,0a1.3,1.3,0,0,1-1.28-1.12l-.79-5.7L6.68,17.89a.15.15,0,0,0-.14-.08.18.18,0,0,0-.18.15L6,20.26a1.29,1.29,0,0,1-.12.38L3.18,26.3a1.28,1.28,0,0,1-1.7.61,1.32,1.32,0,0,1-.62-1.76l2.65-5.46L4,15.94C4,14.07,3.59,12,4.71,9,5.62,6.51,6.54,5.7,7.49,5.7m0-.72a2.55,2.55,0,0,0-1.93,1A8.62,8.62,0,0,0,4,8.76a12.55,12.55,0,0,0-.75,3.35,19.32,19.32,0,0,0,0,2.64c0,.4,0,.77,0,1.14l-.51,3.59L.22,24.84a2,2,0,0,0-.08,1.58,2,2,0,0,0,1,1.14,1.88,1.88,0,0,0,.84.19,2.06,2.06,0,0,0,1-.3,2,2,0,0,0,.76-.84L6.57,21a2.11,2.11,0,0,0,.18-.59l.11-.8.54.89L8.17,26a2,2,0,0,0,2,1.74,2.1,2.1,0,0,0,.43-.05,2,2,0,0,0,1.23-.83,2.07,2.07,0,0,0,.33-1.43l-.82-6a1.93,1.93,0,0,0-.28-.77l-2.6-4.28c.18-.5.42-1.2.76-2.21l.36-1.05a12.2,12.2,0,0,0,.69-2.9A3.39,3.39,0,0,0,10,6.38a2.25,2.25,0,0,0-.78-.87,3.31,3.31,0,0,0-.89-.39A2.72,2.72,0,0,0,7.49,5Z"/><path class="cls-1" d="M9,.72h.2A2.16,2.16,0,0,1,11,3.16a2.19,2.19,0,0,1-2.12,2h-.2A2.17,2.17,0,0,1,6.86,2.74,2.17,2.17,0,0,1,9,.72M9,0A2.79,2.79,0,0,0,7.06.78a3,3,0,0,0-.32,4A2.77,2.77,0,0,0,8.65,5.89h.27a2.74,2.74,0,0,0,1.91-.77,3,3,0,0,0,.92-1.9,3,3,0,0,0-.6-2.14A2.73,2.73,0,0,0,9.24,0Z"/><path class="cls-1" d="M4.48,7.34a.1.1,0,0,1,.09.14c-.18.38-.36.81-.54,1.28s-.25.75-.35,1.1a.3.3,0,0,1-.14.19l-.33.21a1.08,1.08,0,0,0-.49.81L2.51,13.5a1,1,0,0,1-1,.9.9.9,0,0,1-.81-1L1,10a1,1,0,0,1,.49-.8L4.43,7.36a.06.06,0,0,1,.05,0m0-.72A.87.87,0,0,0,4,6.75L1.13,8.62A1.79,1.79,0,0,0,.31,10L0,13.36a1.58,1.58,0,0,0,.37,1.18,1.59,1.59,0,0,0,1.09.57h.06a1.67,1.67,0,0,0,1.14-.45,1.65,1.65,0,0,0,.55-1.09l.22-2.44a.37.37,0,0,1,.16-.27l.33-.21a1,1,0,0,0,.44-.6c.1-.35.21-.7.34-1s.33-.86.5-1.22a.78.78,0,0,0,0-.78.82.82,0,0,0-.69-.39Z"/><path class="cls-1" d="M10.38,7.82a.09.09,0,0,1,.07,0L11.4,9a2.19,2.19,0,0,0,1.33.72l1.49.24a.9.9,0,0,1-.14,1.78h-.14l-2.14-.36a2.18,2.18,0,0,1-1.3-.72l-.44-.5A.31.31,0,0,1,10,9.81a8.63,8.63,0,0,0,.29-1.89.1.1,0,0,1,.1-.1m0-.71a.79.79,0,0,0-.55.21.81.81,0,0,0-.27.58,7.72,7.72,0,0,1-.27,1.73,1.06,1.06,0,0,0,.23.95l.44.5a3,3,0,0,0,1.72.95l2.15.35h0a1.06,1.06,0,0,0,.25,0A1.61,1.61,0,0,0,15.67,11,1.61,1.61,0,0,0,14.33,9.2L12.84,9a1.51,1.51,0,0,1-.9-.5L11,7.39a.81.81,0,0,0-.61-.28Z"/></g></g></svg>