<?xml version="1.0" encoding="utf-8"?>
<!-- Generator: Adobe Illustrator 22.0.0, SVG Export Plug-In . SVG Version: 6.00 Build 0)  -->
<svg version="1.1" id="Capa_1" xmlns="http://www.w3.org/2000/svg" xmlns:xlink="http://www.w3.org/1999/xlink" x="0px" y="0px"
	 viewBox="0 0 1366 768" style="enable-background:new 0 0 1366 768;" xml:space="preserve">
<style type="text/css">
	.st0{fill:#60696F;}
</style>
<g>
	<g id="XMLID_4_">
		<g id="XMLID_7_">
			<path id="XMLID_27_" class="st0" d="M521.5,300.7c1.7,0,2.6,0.9,2.6,2.6v12.9c0,1.7-0.9,2.6-2.6,2.6h-29.8v74.5
				c0,1.7-0.9,2.6-2.6,2.6H473c-1.7,0-2.6-0.9-2.6-2.6v-74.5h-29.8c-1.7,0-2.6-0.9-2.6-2.6v-12.9c0-1.7,0.9-2.6,2.6-2.6H521.5z"/>
			<path id="XMLID_26_" class="st0" d="M584.2,329c1.5,0.4,2.2,1.4,2,3l-1.8,13c-0.3,1.6-1.3,2.3-3,2c-2.3-0.5-4.8-0.7-7.5-0.7
				c-5.3,0-9.6,1.6-12.9,4.8c-3.4,3.2-5,7.5-5,12.9v29.2c0,1.7-0.9,2.6-2.6,2.6h-15.2c-1.7,0-2.6-0.9-2.6-2.6v-42.7
				c0-3.5-1.8-5.3-5.3-5.3c-0.4,0-1.4,0.1-3,0.4c-2,0-3-0.7-3-2.2v-11.1c0-1.5,0.7-2.5,2-3c3.2-1.1,6.4-1.6,9.8-1.6
				c8.2,0,13.7,3.1,16.5,9.3c5.6-6.2,13-9.3,22.2-9.3C578.7,327.7,581.8,328.1,584.2,329"/>
			<path id="XMLID_23_" class="st0" d="M680.8,393.6c0.2,1.5-0.5,2.5-2.2,2.8c-3.7,1.1-7.1,1.6-10.2,1.6c-8.3,0-14.1-2.8-17.1-8.3
				c-6.4,5.5-14,8.3-22.9,8.3c-10.5,0-19.1-3.3-25.8-9.8c-6.7-6.5-10-15-10-25.3c0-10.4,3.3-18.9,10-25.4c6.6-6.5,15.3-9.8,25.8-9.8
				c7.5,0,13.9,2.1,19.3,6.3v-1.5c0-1.7,0.9-2.6,2.6-2.6h15c1.7,0,2.6,0.9,2.6,2.6v42.7c0,3.5,1.5,5.3,4.5,5.3c1.6,0,3-0.1,4.2-0.4
				c1.8-0.2,2.8,0.6,2.9,2.2L680.8,393.6z M630.2,382.1c5.1,0,9.2-1.8,12.4-5.4c3.2-3.6,4.8-8.2,4.8-13.8c0-5.7-1.6-10.4-4.8-13.9
				c-3.2-3.6-7.3-5.4-12.4-5.4c-5.2,0-9.4,1.8-12.7,5.4c-3.3,3.6-4.9,8.2-4.9,13.9c0,5.6,1.6,10.2,4.9,13.8
				C620.8,380.3,625,382.1,630.2,382.1"/>
			<path id="XMLID_22_" class="st0" d="M739.6,327.7c8.9,0,16,2.7,21.5,8.2c5.4,5.5,8.2,12.8,8.2,21.8v35.5c0,1.7-0.9,2.6-2.6,2.6
				h-15.2c-1.8,0-2.7-0.9-2.7-2.6v-32.8c0-4.6-1.3-8.3-3.9-11.2c-2.6-2.8-6-4.2-10.4-4.2c-4.5,0-8.2,1.3-11,4
				c-2.8,2.7-4.1,6.3-4.1,10.7v33.5c0,1.7-0.9,2.6-2.6,2.6h-15.2c-1.7,0-2.6-0.9-2.6-2.6v-42.7c0-3.5-1.8-5.3-5.3-5.3
				c-0.4,0-1.4,0.1-3,0.4c-2,0-3-0.7-3-2.2v-11.2c0-1.5,0.7-2.5,2.1-3c2.8-1.1,6.1-1.6,9.8-1.6c7.8,0,13.2,2.9,16.3,8.6
				C721.5,330.6,729.4,327.7,739.6,327.7"/>
			<path id="XMLID_21_" class="st0" d="M814.1,398c-9.5,0-17.3-1.9-23.3-5.6c-6-3.8-9.5-9-10.5-15.7c-0.3-1.8,0.6-2.7,2.6-2.7
				l13.3,0.1c1.2,0,2.2,0.6,3,1.9c1.9,4.9,6.8,7.4,14.8,7.4c3.3,0,6.1-0.5,8.1-1.6c2.1-1.1,3.1-2.5,3.1-4.4c0-2.4-1.4-4-4.4-5.1
				c-2.9-1-6.4-1.8-10.6-2.3c-4.2-0.5-8.4-1.2-12.5-2.2c-4.2-1-7.7-3-10.6-6.1c-2.9-3.1-4.3-7.3-4.3-12.5c0-6.4,2.8-11.6,8.3-15.5
				c5.5-3.9,12.8-5.9,21.9-5.9c8.5,0,15.7,1.8,21.4,5.4c5.8,3.6,9.1,8.3,10,14.2c0.3,1.8-0.5,2.7-2.5,2.7h-13.5
				c-1.2,0-2.1-0.5-2.7-1.6c-0.8-2-2.4-3.6-4.7-4.8c-2.3-1.2-4.9-1.8-7.8-1.8c-3.2,0-5.7,0.5-7.7,1.6c-1.9,1-2.9,2.4-2.9,4.2
				c0,2.4,1.5,4.3,4.4,5.4c2.9,1.2,6.5,2.1,10.8,2.7c4.2,0.6,8.4,1.4,12.6,2.4c4.2,1,7.7,3,10.7,6.1c2.9,3.1,4.4,7.2,4.4,12.4
				c0,6.6-2.8,11.9-8.4,15.8C831.5,396.1,823.8,398,814.1,398"/>
			<path id="XMLID_18_" class="st0" d="M904.7,327.7c10.6,0,19.2,3.3,25.9,9.8c6.7,6.5,10,15,10,25.4c0,10.3-3.3,18.8-10,25.3
				c-6.7,6.5-15.3,9.8-25.9,9.8c-7.3,0-13.6-1.9-18.9-5.9V425c0,1.6-0.9,2.4-2.6,2.4H868c-1.7,0-2.6-0.8-2.6-2.4v-74.4
				c0-3.6-1.8-5.3-5.3-5.3c-0.4,0-1.4,0.1-3,0.4c-2,0-3-0.7-3-2.2v-11.2c0-1.5,0.7-2.5,2-3c2.8-1.1,6.1-1.6,9.8-1.6
				c8,0,13.5,2.9,16.4,8.7C888.3,330.6,895.7,327.7,904.7,327.7 M890.6,376.8c3.2,3.6,7.4,5.4,12.5,5.4c5.1,0,9.3-1.8,12.6-5.4
				c3.3-3.6,5-8.2,5-13.8c0-5.7-1.6-10.3-5-13.9c-3.3-3.6-7.5-5.4-12.6-5.4c-5.1,0-9.2,1.8-12.5,5.4c-3.2,3.6-4.8,8.2-4.8,13.9
				C885.8,368.6,887.4,373.2,890.6,376.8"/>
			<path id="XMLID_15_" class="st0" d="M1015.8,388.4c-6.8,6.4-15.9,9.7-27.1,9.7s-20.3-3.2-27.1-9.7c-6.8-6.4-10.3-14.9-10.3-25.4
				c0-10.6,3.4-19.1,10.3-25.6c6.9-6.4,15.9-9.7,27.1-9.7s20.3,3.2,27.1,9.7c6.9,6.4,10.3,15,10.3,25.6
				C1026.1,373.5,1022.6,382,1015.8,388.4 M975.6,376.2c3.3,3.3,7.7,5,13,5c5.4,0,9.7-1.7,13-5c3.3-3.3,5-7.7,5-13.3
				c0-5.5-1.6-10-5-13.3c-3.3-3.4-7.6-5-13-5c-5.3,0-9.7,1.7-13,5c-3.3,3.4-5,7.8-5,13.3C970.7,368.5,972.3,372.9,975.6,376.2"/>
			<path id="XMLID_14_" class="st0" d="M1094.6,329c1.5,0.4,2.2,1.4,2,3l-1.8,13c-0.3,1.6-1.3,2.3-3,2c-2.3-0.5-4.8-0.7-7.5-0.7
				c-5.3,0-9.6,1.6-12.9,4.8c-3.4,3.2-5,7.5-5,12.9v29.2c0,1.7-0.9,2.6-2.6,2.6h-15.2c-1.7,0-2.6-0.9-2.6-2.6v-42.7
				c0-3.5-1.8-5.3-5.3-5.3c-0.4,0-1.4,0.1-3,0.4c-2,0-3-0.7-3-2.2v-11.1c0-1.5,0.7-2.5,2.1-3c3.2-1.1,6.4-1.6,9.8-1.6
				c8.2,0,13.7,3.1,16.5,9.3c5.6-6.2,13-9.3,22.2-9.3C1089,327.7,1092.1,328.1,1094.6,329"/>
			<path id="XMLID_13_" class="st0" d="M1144.7,398c-8.9,0-15.9-2.5-21-7.5c-5.1-5-7.7-11.9-7.7-20.6v-23.5h-12.5
				c-1.7,0-2.6-0.9-2.6-2.6v-11.3c0-1.7,0.9-2.6,2.6-2.6h12.5v-17.3c0-1.7,0.9-2.6,2.6-2.6h15.2c1.7,0,2.6,0.9,2.6,2.6v17.3h21.4
				c1.7,0,2.6,0.9,2.6,2.6v11.3c0,1.7-0.9,2.6-2.6,2.6h-21.4v22.9c0,3.4,1,6.2,3.1,8.2c2,2,4.8,3,8.2,3c3.5,0,6.9-0.4,10.2-1.2
				c1.7-0.3,2.7,0.4,3,2l1.8,11.7c0.1,1.4-0.6,2.4-2.1,3C1154.8,397.3,1149.5,398,1144.7,398"/>
			<path id="XMLID_10_" class="st0" d="M1208.7,398c-11.2,0-20.2-3.2-27.1-9.7c-6.9-6.4-10.3-14.9-10.3-25.4
				c0-10.6,3.3-19.1,10-25.6c6.7-6.4,15.4-9.7,26.2-9.7c10.9,0,19.5,3.2,25.9,9.5c6.4,6.3,9.6,14.7,9.6,25.2c0,0.5,0,1.3-0.1,2.4
				c-0.1,1-0.1,1.8-0.1,2.2c-0.3,1.5-1.2,2.3-2.9,2.3h-48.8c1.1,4.1,3.2,7.3,6.5,9.7c3.2,2.4,7.1,3.5,11.5,3.5c5,0,8.7-1.4,11.2-4.1
				c1.2-0.9,2.3-1.4,3.3-1.4h15.2c1,0,1.7,0.3,2.1,0.8c0.4,0.5,0.4,1.2,0.1,2c-2.3,5.6-6.4,10.1-12.1,13.3
				C1223.1,396.4,1216.4,398,1208.7,398 M1191,357.2h32.5c-0.2-4.3-1.7-7.7-4.5-10.4c-2.8-2.7-6.5-4-11-4c-4.4,0-8.2,1.3-11.4,4
				C1193.6,349.5,1191.7,353,1191,357.2"/>
			<path id="XMLID_9_" class="st0" d="M219.4,509.6c-3.4,0-6.8-0.1-10.2-0.4C147.9,504,100,450.2,100,386.6V276.1
				c0-50.6,41.1-91.7,91.7-91.7h149v29.4h-149c-34.4,0-62.3,28-62.3,62.3v110.5c0,48.4,36.1,89.3,82.2,93.2
				c25.2,2.1,49.4-6.2,68-23.3c18.7-17.3,29.5-41.8,29.5-67.3v-80.5h29.4v80.5c0,33.7-14.2,66.1-39,88.9
				C277.3,498.6,249.1,509.6,219.4,509.6"/>
			<path id="XMLID_8_" class="st0" d="M220.8,443.2c-0.8,0-1.6,0-2.4-0.1c-30.1-1.3-53.7-26.5-53.7-57.3V273.3
				c0-15,12.2-27.3,27.3-27.3h148.7v29.4H194.1v110.4c0,14.8,11.5,27.3,25.5,27.9c7.2,0.3,14.2-2.3,19.5-7.4
				c5.4-5.2,8.4-12.2,8.4-19.7v-77.5h29.4v77.5c0,15.4-6.4,30.3-17.5,40.9C248.9,437.7,235.2,443.2,220.8,443.2"/>
		</g>
	</g>
</g>
</svg>
