<svg xmlns="http://www.w3.org/2000/svg" viewBox="0 0 85.35 85.14"><defs><style>.cls-1{fill:none;stroke:#f08077;stroke-linecap:round;stroke-linejoin:round;stroke-width:3px;}</style></defs><g id="Capa_2" data-name="Capa 2"><g id="Capa_1-2" data-name="Capa 1"><path class="cls-1" d="M29.77,81.79a41.19,41.19,0,1,1,17.11,1.85"/><path class="cls-1" d="M46.71,83.64l5.62-31.75a2.14,2.14,0,0,1,2.1-1.77H70.51a2.14,2.14,0,0,0,2.11-1.76L74.86,35.7a2.13,2.13,0,0,0-2.1-2.51H58.19a2.14,2.14,0,0,1-2.1-2.51L57.9,20.47A2.14,2.14,0,0,0,55.79,18H43.2a2.14,2.14,0,0,0-2.11,1.76L39,31.42a2.15,2.15,0,0,1-2.11,1.77H20.83A2.13,2.13,0,0,0,18.73,35L16.49,47.61a2.13,2.13,0,0,0,2.1,2.51H33.16a2.13,2.13,0,0,1,2.1,2.51L30.09,81.81"/></g></g></svg>