<svg xmlns="http://www.w3.org/2000/svg" viewBox="0 0 85.35 85.35"><defs><style>.cls-1{fill:none;stroke:#f08077;stroke-linecap:round;stroke-linejoin:round;stroke-width:3px;}</style></defs><g id="Capa_2" data-name="Capa 2"><g id="Capa_1-2" data-name="Capa 1"><path class="cls-1" d="M39.23,29.25h6.89a12,12,0,0,1,12,12V65a0,0,0,0,1,0,0H27.23a0,0,0,0,1,0,0V41.25A12,12,0,0,1,39.23,29.25Z"/><path class="cls-1" d="M40.14,42.52h15a0,0,0,0,1,0,0v20a0,0,0,0,1,0,0H40.39A10.14,10.14,0,0,1,30.25,52.4v0a9.89,9.89,0,0,1,9.89-9.89Z" transform="translate(95.21 9.86) rotate(90)"/><line class="cls-1" x1="12.82" y1="71.15" x2="72.53" y2="71.15"/><path class="cls-1" d="M63.39,78.26a41.2,41.2,0,0,1-41.44,0"/><path class="cls-1" d="M12.82,71a41.18,41.18,0,1,1,59.59.12"/><line class="cls-1" x1="16.17" y1="23.69" x2="22.42" y2="29.95"/><line class="cls-1" x1="42.67" y1="7.43" x2="42.67" y2="21.56"/><line class="cls-1" x1="69.58" y1="23.29" x2="62.92" y2="29.95"/><rect class="cls-1" x="18.52" y="64.96" width="48.77" height="6.19"/></g></g></svg>