<svg xmlns="http://www.w3.org/2000/svg" viewBox="0 0 1020.08 131.55"><defs><style>.cls-1{font-size:62px;font-family:Nutmeg-Black, Nutmeg;font-weight:800;}.cls-1,.cls-17{fill:#262840;}.cls-2{letter-spacing:0em;}.cls-3,.cls-4,.cls-5,.cls-6,.cls-7,.cls-8{fill:#f08077;}.cls-3{letter-spacing:0em;}.cls-4{letter-spacing:-0.01em;}.cls-6{letter-spacing:-0.01em;}.cls-7{letter-spacing:-0.01em;}.cls-8{letter-spacing:0em;}.cls-9{font-size:36.2px;font-family:Nutmeg-Bold, Nutmeg;font-weight:700;}.cls-10{letter-spacing:0em;}.cls-11{letter-spacing:0em;}.cls-12{letter-spacing:0em;}.cls-13{letter-spacing:0em;}.cls-14{letter-spacing:-0.01em;}.cls-15{letter-spacing:-0.01em;}.cls-16{letter-spacing:0em;}.cls-18{fill:#91b0d9;}</style></defs><g id="Capa_2" data-name="Capa 2"><g id="Capa_1-2" data-name="Capa 1"><text class="cls-1" transform="translate(198.23 67.49)">Mapa d<tspan class="cls-2" x="252.83" y="0">e</tspan><tspan class="cls-3" x="291.21" y="0" xml:space="preserve"> sin</tspan><tspan class="cls-4" x="403.49" y="0">i</tspan><tspan class="cls-5" x="421.97" y="0">est</tspan><tspan class="cls-6" x="528.48" y="0">r</tspan><tspan class="cls-5" x="559.61" y="0">al</tspan><tspan class="cls-7" x="627.49" y="0">i</tspan><tspan class="cls-5" x="645.97" y="0">d</tspan><tspan class="cls-4" x="691.48" y="0">a</tspan><tspan class="cls-8" x="736.55" y="0">d</tspan><tspan class="cls-9"><tspan class="cls-10" x="0" y="39.49">L</tspan><tspan x="22.12" y="39.49">es</tspan><tspan class="cls-11" x="63.82" y="39.49">i</tspan><tspan x="73.74" y="39.49">ones y fa</tspan><tspan class="cls-11" x="247.63" y="39.49">lt</tspan><tspan class="cls-12" x="277.1" y="39.49">al</tspan><tspan class="cls-11" x="314.93" y="39.49">i</tspan><tspan x="324.84" y="39.49">d</tspan><tspan class="cls-13" x="350.58" y="39.49">a</tspan><tspan x="376.28" y="39.49">des a n</tspan><tspan class="cls-14" x="512.53" y="39.49">i</tspan><tspan class="cls-15" x="522.09" y="39.49">v</tspan><tspan x="543.66" y="39.49">el in</tspan><tspan class="cls-11" x="621.49" y="39.49">t</tspan><tspan x="638.97" y="39.49">e</tspan><tspan class="cls-16" x="660.94" y="39.49">r</tspan><tspan x="679.12" y="39.49">secc</tspan><tspan class="cls-11" x="764.62" y="39.49">i</tspan><tspan x="774.54" y="39.49">ón</tspan></tspan></text><circle class="cls-5" cx="85.1" cy="65.78" r="63.33"/><path class="cls-17" d="M85.1,131.55a66,66,0,0,1-53.41-27.38,2.44,2.44,0,1,1,4-2.85,60.9,60.9,0,0,0,104.15-8.77,2.44,2.44,0,1,1,4.38,2.15A65.75,65.75,0,0,1,85.1,131.55Z"/><path class="cls-17" d="M136.38,31a2.45,2.45,0,0,1-2-1,60.89,60.89,0,0,0-94.26-5.32,2.44,2.44,0,1,1-3.61-3.29,65.79,65.79,0,0,1,101.83,5.74,2.45,2.45,0,0,1-2,3.88Z"/><path class="cls-18" d="M54.8,75a10.56,10.56,0,1,0,10.42,8.89A10.53,10.53,0,0,0,54.8,75Z"/><path class="cls-18" d="M61.11,59.29l-.25.56a2.44,2.44,0,0,1-4,.65l-.06-.07,0,.08a2.44,2.44,0,0,1-4.05.65l-.06-.07,0,.08a2.45,2.45,0,0,1-2.84,1.39l-5.91-1.5-4.38,4.21A2.47,2.47,0,0,1,37.8,66l-5.9.13-2.31,5.34a2.45,2.45,0,0,1-.72.94L24.24,76l3.25,12.22,6.61,2.15,5.29-3.87A15.44,15.44,0,0,1,70,83.14s0,.08,0,.12l4.22-3.09A2.47,2.47,0,0,1,76,79.71l8.41.78,18-2.88L98.5,53.32Z"/><path class="cls-18" d="M132.39,37.7a90.5,90.5,0,0,0-16.45-2.22,82.13,82.13,0,0,0-15.22.77l1.83,11.48,25.33-4Z"/><path class="cls-18" d="M97.73,48.5,95.91,37.11A75.17,75.17,0,0,0,62.23,54a1.29,1.29,0,0,1,.09.16Z"/><path class="cls-18" d="M159.52,53.15a.18.18,0,0,0,.14,0l4.55-.73-1.65-10.33-4.85,0L159.44,53A.16.16,0,0,0,159.52,53.15Z"/><path class="cls-18" d="M142,61.09a10.56,10.56,0,1,0,10.56,10.59,10.73,10.73,0,0,0-.14-1.7A10.58,10.58,0,0,0,142,61.09Z"/><path class="cls-18" d="M165.16,58.4,165,57.29l-4.55.72a4.43,4.43,0,0,1-.81.07,5.1,5.1,0,0,1-5-4.28l-1.84-11.57-5.64.06a2.38,2.38,0,0,1-1.06-.23,67.63,67.63,0,0,0-8.56-3l-6.32,8.38a2.43,2.43,0,0,1-1.56,1l-26.31,4.2,3.88,24.29,19.5-3.12a15.44,15.44,0,0,1,30.47-4.92c3.18-.74,5.46-2.09,6.78-4a8.85,8.85,0,0,0,1.24-6.23Z"/><path class="cls-17" d="M16.91,51.59a69.81,69.81,0,0,1,10.5,1.84,2.46,2.46,0,0,0,3-2.48,69,69,0,0,1,.19-10.68,70.93,70.93,0,0,1,10,3.78,2.45,2.45,0,0,0,2-4.47,80.05,80.05,0,0,0-13.5-4.81,2.44,2.44,0,0,0-3.07,2.08A75.72,75.72,0,0,0,25.44,48a77.11,77.11,0,0,0-11-1.5,2.43,2.43,0,0,0-2.62,2.63,77.15,77.15,0,0,0,1.5,11,75.58,75.58,0,0,0-11.12.62A2.44,2.44,0,0,0,.09,63.81,78.88,78.88,0,0,0,4.9,77.31a2.43,2.43,0,0,0,2.23,1.45,2.48,2.48,0,0,0,1-.21,2.44,2.44,0,0,0,1.24-3.22,72.75,72.75,0,0,1-3.78-10,69.11,69.11,0,0,1,10.69-.19,2.46,2.46,0,0,0,2.48-3A69.81,69.81,0,0,1,16.91,51.59Z"/><path class="cls-17" d="M169.42,54.1h0l-2.37-14.82a1.66,1.66,0,0,0-.12-.45.94.94,0,0,0-.06-.15,2.1,2.1,0,0,0-.13-.26l-.11-.16-.16-.21-.13-.13-.2-.17-.15-.11-.23-.14-.16-.07-.26-.1-.18,0-.27,0-.19,0h-.08l-17,.18a91.79,91.79,0,0,0-31.27-6.79A85.76,85.76,0,0,0,98,31.8a2.17,2.17,0,0,0-.44,0A2.23,2.23,0,0,0,97,32,81.51,81.51,0,0,0,55.35,53.64,2.41,2.41,0,0,0,53.8,55l0,.08L53.71,55a2.45,2.45,0,0,0-4.06.65l-.72,1.65L43.7,56a2.42,2.42,0,0,0-2.29.61l-4.67,4.49-6.51.14a2.43,2.43,0,0,0-2.18,1.47l-2.7,6.22L20,73.19h0l0,0-.1.09c-.08.08-.16.15-.23.23l-.14.19-.13.2a2.14,2.14,0,0,0-.1.22,1,1,0,0,0-.09.21c0,.08,0,.15-.06.22a2,2,0,0,0-.05.24,1.93,1.93,0,0,0,0,.24,1.76,1.76,0,0,0,0,.23,1.64,1.64,0,0,0,.05.32s0,.1,0,.15v0h0l4,15v0c0,.05,0,.09,0,.13a2.52,2.52,0,0,0,.12.29l.07.13a2.13,2.13,0,0,0,.16.25l.1.12.19.21.13.11a2.07,2.07,0,0,0,.24.17l.12.08a3,3,0,0,0,.41.18h0l9.07,3a2.4,2.4,0,0,0,.75.12A2.43,2.43,0,0,0,36,95.09l4.64-3.39A15.49,15.49,0,0,0,54.76,101a14.7,14.7,0,0,0,2.47-.2A15.44,15.44,0,0,0,69.72,89.56l6.7-4.9,7.79.72h.61l43.31-6.92A15.5,15.5,0,0,0,142,87.09a14.51,14.51,0,0,0,2.44-.2A15.36,15.36,0,0,0,157.3,73.77c4.95-1,8.56-3.07,10.73-6.31A13.73,13.73,0,0,0,170,57.57Zm-6.86-12,1.65,10.33-4.55.73a.18.18,0,0,1-.14,0,.16.16,0,0,1-.08-.13l-1.73-10.84Zm-66.65-5L97.73,48.5,62.32,54.15a1.29,1.29,0,0,0-.09-.16A75.17,75.17,0,0,1,95.91,37.11ZM63.35,91.77a10.56,10.56,0,1,1,1.87-7.86A10.5,10.5,0,0,1,63.35,91.77Zm21-11.28L76,79.71a2.47,2.47,0,0,0-1.67.46l-4.22,3.09s0-.08,0-.12a15.44,15.44,0,0,0-30.65,3.4L34.1,90.41l-6.61-2.15L24.24,76l4.63-3.68a2.45,2.45,0,0,0,.72-.94l2.31-5.34L37.8,66a2.47,2.47,0,0,0,1.64-.68l4.38-4.21,5.91,1.5a2.45,2.45,0,0,0,2.84-1.39l0-.08.06.07a2.44,2.44,0,0,0,4.05-.65l0-.08.06.07a2.44,2.44,0,0,0,4-.65l.25-.56,37.39-6,3.88,24.29Zm16.36-44.24a82.13,82.13,0,0,1,15.22-.77,90.5,90.5,0,0,1,16.45,2.22l-4.51,6-25.33,4Zm42.94,45.82A10.56,10.56,0,1,1,152.42,70a10.73,10.73,0,0,1,.14,1.7A10.5,10.5,0,0,1,143.66,82.07ZM164,64.78c-1.32,1.93-3.6,3.28-6.78,4a15.44,15.44,0,0,0-30.47,4.92l-19.5,3.12-3.88-24.29,26.31-4.2a2.43,2.43,0,0,0,1.56-1L137.51,39a67.63,67.63,0,0,1,8.56,3,2.38,2.38,0,0,0,1.06.23l5.64-.06,1.84,11.57a5.1,5.1,0,0,0,5,4.28,4.43,4.43,0,0,0,.81-.07l4.55-.72.18,1.11,0,.15A8.85,8.85,0,0,1,164,64.78Z"/></g></g></svg>