<svg xmlns="http://www.w3.org/2000/svg" viewBox="0 0 27.75 17.91"><defs><style>.cls-1{fill:#262840;}</style></defs><g id="Capa_2" data-name="Capa 2"><g id="Capa_1-2" data-name="Capa 1"><path class="cls-1" d="M21.69,6.59a5.28,5.28,0,1,1,0,10.56h-.16A5.28,5.28,0,0,1,19.74,7a5.12,5.12,0,0,1,.78-.24,5.06,5.06,0,0,1,1.17-.13m0,9.75h0a4.47,4.47,0,0,0,0-8.94,4.08,4.08,0,0,0-.93.1,3.19,3.19,0,0,0-.78.24,4.47,4.47,0,0,0,1.71,8.6m0-10.51A5.9,5.9,0,0,0,20.36,6h0a5.2,5.2,0,0,0-.88.27h0a6.08,6.08,0,0,0-2.81,2.24,6,6,0,0,0,.74,7.64,6.07,6.07,0,0,0,4.11,1.78h.18a6,6,0,1,0,0-12.08Zm0,9.75A3.73,3.73,0,0,1,18,11.91,3.6,3.6,0,0,1,18.6,9.8a3.71,3.71,0,0,1,1.67-1.36h0a3.21,3.21,0,0,1,.61-.18h0a3.94,3.94,0,0,1,.77-.08,3.71,3.71,0,0,1,0,7.42Z"/><path class="cls-1" d="M6.06,6.59a5.31,5.31,0,0,1,1.84.33,4.87,4.87,0,0,1,.74.34,5.3,5.3,0,0,1,2.7,4.17c0,.26,0,.53,0,.85h0A5.3,5.3,0,1,1,6,6.59h.08m0,9.75a4.46,4.46,0,0,0,4.47-4.06,3.65,3.65,0,0,0,0-.81h0A4.52,4.52,0,0,0,8.3,8a3.31,3.31,0,0,0-.74-.34,4.38,4.38,0,0,0-1.5-.26,4.47,4.47,0,1,0,0,8.94m0-10.51H6A6.07,6.07,0,0,0,0,11.7a5.94,5.94,0,0,0,.43,2.4,5.83,5.83,0,0,0,1.28,2,6,6,0,0,0,4.35,1.84,6.07,6.07,0,0,0,4.13-1.61A6.12,6.12,0,0,0,12,13h.08l0-.74c0-.31,0-.59,0-.9v0A6.06,6.06,0,0,0,9,6.6H9a6,6,0,0,0-.83-.39,6.1,6.1,0,0,0-2.11-.38Zm0,9.75a3.71,3.71,0,1,1,0-7.42,3.77,3.77,0,0,1,1.25.21h0a2.45,2.45,0,0,1,.57.27h0A3.77,3.77,0,0,1,9.19,9.87a3.68,3.68,0,0,1,.56,1.53l0,.15a2.62,2.62,0,0,1,0,.62v0a3.7,3.7,0,0,1-3.71,3.37Z"/><path class="cls-1" d="M11.17,1.65a.39.39,0,0,1,.4.4.4.4,0,0,1-.4.4H8a.4.4,0,0,1-.41-.4A.4.4,0,0,1,8,1.65h3.2m0-.76H8A1.16,1.16,0,1,0,8,3.21h3.2a1.16,1.16,0,1,0,0-2.32Z"/><path class="cls-1" d="M20.87,8.27a.17.17,0,0,1,.17.12l.92,3a.42.42,0,0,1-.27.51l-.12,0a.4.4,0,0,1-.39-.29l-.92-3a.18.18,0,0,1,.11-.22l.45-.13h.05m0-.76a.84.84,0,0,0-.27,0l-.45.14a.93.93,0,0,0-.62,1.16l.92,3a1.16,1.16,0,0,0,1.12.82,1.33,1.33,0,0,0,.34-.05A1.22,1.22,0,0,0,22.6,12a1.2,1.2,0,0,0,.08-.89l-.92-3a.91.91,0,0,0-.89-.66Z"/><path class="cls-1" d="M7.32,8.41a.15.15,0,0,1,.09,0l.4.19a.17.17,0,0,1,.1.23l-1.1,2.38a.17.17,0,0,0,.16.24H9.59a.17.17,0,0,1,.17.18v.46a.17.17,0,0,1-.17.17H6.7A.82.82,0,0,1,6,11.12L7.17,8.51a.16.16,0,0,1,.15-.1m0-.76a.92.92,0,0,0-.84.54L5.27,10.8A1.58,1.58,0,0,0,6.7,13H9.59a.91.91,0,0,0,.66-.28.9.9,0,0,0,.27-.66v-.46a.93.93,0,0,0-.93-.93H7.89L8.6,9.17a1,1,0,0,0,0-.73,1,1,0,0,0-.52-.53l-.31-.14a1,1,0,0,0-.47-.12Z"/><path class="cls-1" d="M16.71.76a.38.38,0,0,1,.17,0l1.33.6a1.86,1.86,0,0,1,1,1.15l1,3.27a.16.16,0,0,1-.12.21l-.43.14h-.06a.17.17,0,0,1-.16-.12l0-.13a.18.18,0,0,0-.17-.12.16.16,0,0,0-.13.06l-5.31,6a1.36,1.36,0,0,1-1,.45h-.54a.18.18,0,0,1-.17-.18v-.45a.17.17,0,0,1,.17-.18h.05a.17.17,0,0,0,.16-.24L9.81,5.42a.16.16,0,0,0-.16-.1.18.18,0,0,0-.16.1L9,6.41a.18.18,0,0,1-.16.1l-.08,0-.41-.2a.17.17,0,0,1-.09-.23L9,4.58a1.76,1.76,0,0,1,.27-.4l-.34-.73a.17.17,0,0,1,.16-.24h.51a.18.18,0,0,1,.16.1l.2.45a1.61,1.61,0,0,1,.44,0h8.36l-.28-.91a1,1,0,0,0-.58-.65l-1.34-.6a.4.4,0,0,1-.2-.54.39.39,0,0,1,.37-.24M13.39,11a.15.15,0,0,0,.13-.05L19,4.82a.21.21,0,0,0,0-.21.2.2,0,0,0-.17-.12H10.28l3,6.41a.18.18,0,0,0,.16.1M16.71,0h0a1.18,1.18,0,0,0-1.07.69,1.19,1.19,0,0,0,0,.89,1.15,1.15,0,0,0,.61.65l1.34.6A.25.25,0,0,1,17.7,3H10.41a1,1,0,0,0-.83-.5H9.07a.93.93,0,0,0-.85,1.32l.15.33c0,.06,0,.11-.08.16L7.61,5.74A.92.92,0,0,0,8.09,7l.37.18a1,1,0,0,0,.42.1.91.91,0,0,0,.76-.4l1.93,4.18a.88.88,0,0,0-.22.62v.42a.94.94,0,0,0,.93.95h.54a2.1,2.1,0,0,0,1.57-.71l4.87-5.47a.91.91,0,0,0,.37.08,1.12,1.12,0,0,0,.31-.05,2.78,2.78,0,0,1,.38-.12,1,1,0,0,0,.58-.45A1,1,0,0,0,21,5.59L20,2.33A2.62,2.62,0,0,0,18.52.7L17.19.1a1.18,1.18,0,0,0-.48-.1ZM13.55,9.76,11.47,5.24h6.1l-4,4.51Z"/></g></g></svg>