<svg xmlns="http://www.w3.org/2000/svg" viewBox="0 0 27.26 27.26"><defs><style>.cls-1{fill:none;stroke:#61568d;stroke-linecap:round;stroke-linejoin:round;}</style></defs><g id="Capa_2" data-name="Capa 2"><g id="Capa_1-2" data-name="Capa 1"><circle class="cls-1" cx="13.63" cy="13.63" r="13.13"/><path class="cls-1" d="M24.17,14.94a18,18,0,0,0-.66,2A11.21,11.21,0,0,1,22.43,20a12.24,12.24,0,0,1-2.68,2.08A11.11,11.11,0,0,1,17,24a12.08,12.08,0,0,1-3.36.1,12.09,12.09,0,0,1-3.36-.1A9.87,9.87,0,0,1,7.73,22.2,14,14,0,0,1,4.83,20,11.54,11.54,0,0,1,3.7,16.92a17.38,17.38,0,0,0-.62-2.13"/><path class="cls-1" d="M3.75,10.85c.33-1,.48-2.78,1.08-3.61S6.68,5.92,7.52,5.31s1.75-1.7,2.75-2a12.84,12.84,0,0,1,3.47-.18A11.24,11.24,0,0,1,17,3.28,11.3,11.3,0,0,1,19.77,5.1a12.07,12.07,0,0,1,2.66,2.14c.61.83.76,2.61,1.08,3.61"/><path class="cls-1" d="M23.51,10.85a80.52,80.52,0,0,0-10-.72,76.75,76.75,0,0,0-9.78.72"/><path class="cls-1" d="M3.08,14.79c3.67,0,4.77,2.74,6.29,3.48,1,.47,2.16.31,4.3.31s3.24.09,4.22-.31c1.55-.64,3.19-3.33,6.28-3.33"/><circle class="cls-1" cx="13.63" cy="13.63" r="2.03"/></g></g></svg>