<svg xmlns="http://www.w3.org/2000/svg" viewBox="0 0 27.75 16.14"><defs><style>.cls-1{fill:#f08077;}</style></defs><g id="Capa_2" data-name="Capa 2"><g id="Capa_1-2" data-name="Capa 1"><path class="cls-1" d="M5.09,8.66a2.4,2.4,0,1,1-2.4,2.39,2.4,2.4,0,0,1,2.4-2.39m0-.77a3.17,3.17,0,1,0,3.16,3.16A3.17,3.17,0,0,0,5.09,7.89Z"/><path class="cls-1" d="M5.09,6.74A4.32,4.32,0,1,1,.77,11.05,4.31,4.31,0,0,1,5.09,6.74m0-.77A5.09,5.09,0,1,0,8.68,7.46,5.06,5.06,0,0,0,5.09,6Z"/><path class="cls-1" d="M22.66,8.66a2.4,2.4,0,1,1-2.39,2.39,2.4,2.4,0,0,1,2.39-2.39m0-.77a3.17,3.17,0,1,0,3.16,3.16,3.17,3.17,0,0,0-3.16-3.16Z"/><path class="cls-1" d="M22.66,6.74a4.32,4.32,0,1,1-4.31,4.31,4.31,4.31,0,0,1,4.31-4.31m0-.77a5.09,5.09,0,1,0,3.6,1.49A5,5,0,0,0,22.66,6Z"/><path class="cls-1" d="M19.27.77a.57.57,0,0,1,.36.13,7.52,7.52,0,0,1,.93.86,16.15,16.15,0,0,1,1.68,2,2.66,2.66,0,0,1,.52,1.68,3.79,3.79,0,0,1-.07.45.18.18,0,0,1-.16.14,8.11,8.11,0,0,0-.82.08,5.1,5.1,0,0,0-4,6,1.12,1.12,0,0,1-1.09,1.33H11.83a1.69,1.69,0,0,1-1.68-1.84V11.3a.22.22,0,0,0,0-.08v-.36a.34.34,0,0,1,0-.1v0s0-.07,0-.1v0s0-.08,0-.12v0c0-.05,0-.1,0-.15h0a.78.78,0,0,1,0-.14v0s0-.08,0-.11v0l0-.12h0a.29.29,0,0,1,0-.09h0A5.08,5.08,0,0,0,7.42,6.54a.22.22,0,0,1-.09-.1c-.07-.19-.28-.37-.69-.5A7.4,7.4,0,0,1,4,4.56l-.84-.67a.58.58,0,0,1,.38-1h1a2.92,2.92,0,0,1,1.91.66l.29.19a3.42,3.42,0,0,0,1.82.8,5.27,5.27,0,0,0,.68,0A5.48,5.48,0,0,0,11.69,4l1-.47a4.66,4.66,0,0,1,3.09-.35l.88.21h.13A.57.57,0,0,0,17.26,3a.5.5,0,0,1,.38-.31l.44-.07h.09a.51.51,0,0,1,.45.28L19.14,4a.59.59,0,0,0,.52.33.41.41,0,0,0,.19,0L20,4.21h0a.59.59,0,0,0,.27-.84,5.5,5.5,0,0,0-.34-.5A8,8,0,0,0,18.91,1.8.58.58,0,0,1,18.78,1h0a.57.57,0,0,1,.49-.27m0-.77A1.35,1.35,0,0,0,18,1.87H18L17.51,2a1.28,1.28,0,0,0-.88.61l-.72-.17a5.1,5.1,0,0,0-1.23-.14,5.46,5.46,0,0,0-2.38.55l-1,.47a4.8,4.8,0,0,1-2.14.5,5.63,5.63,0,0,1-.58,0A2.73,2.73,0,0,1,7.2,3.11l0,0,0,0-.25-.17a3.7,3.7,0,0,0-2.38-.8h-1A1.37,1.37,0,0,0,2.19,3a1.35,1.35,0,0,0,.43,1.5h0l.84.67A8.12,8.12,0,0,0,6.42,6.68a1.67,1.67,0,0,1,.22.09,1,1,0,0,0,.42.45A4.33,4.33,0,0,1,9.25,9.93l0,.05v0l0,.1v0h0s0,.07,0,.1h0s0,.08,0,.12h0s0,.08,0,.13h0v0s0,.07,0,.1v0h0a.19.19,0,0,1,0,.08v0s0,.06,0,.09v.27h0v.12h0v.13h0a2.47,2.47,0,0,0,2.45,2.68h4.75a1.89,1.89,0,0,0,1.85-2.24,3.83,3.83,0,0,1-.08-.83,4.3,4.3,0,0,1,1-2.76,4.34,4.34,0,0,1,2.5-1.48c.13,0,.4,0,.73-.07A1,1,0,0,0,23.45,6a5.21,5.21,0,0,0,.08-.57,3.43,3.43,0,0,0-.66-2.15,18.38,18.38,0,0,0-1.76-2.06,9.45,9.45,0,0,0-1-.91,1.37,1.37,0,0,0-.84-.3Z"/></g></g></svg>