<?xml version="1.0" encoding="utf-8"?>
<!-- Generator: Adobe Illustrator 23.0.4, SVG Export Plug-In . SVG Version: 6.00 Build 0)  -->
<svg version="1.1" id="Capa_1" xmlns="http://www.w3.org/2000/svg" xmlns:xlink="http://www.w3.org/1999/xlink" x="0px" y="0px"
	 viewBox="0 0 792 226.7" style="enable-background:new 0 0 792 226.7;" xml:space="preserve">
<style type="text/css">
	.st0{fill:#7B868C;}
</style>
<g>
	<path class="st0" d="M200.82,27.76c-19.4,0-38.56,4.96-55.43,14.33c-8.53,4.73-16.36,10.52-23.42,17.25
		c-7.04-6.73-14.87-12.52-23.41-17.25C81.7,32.72,62.53,27.76,43.13,27.76H33.9v140.33h9.24c16.27,0,32.33,4.16,46.47,12.01
		c9.56,5.33,18.1,12.21,25.39,20.46l6.92,7.84l6.9-7.84c7.29-8.25,15.83-15.13,25.39-20.45c14.14-7.86,30.21-12.02,46.48-12.02h9.2
		l0.15-140.33H200.82z M52.35,46.66c13.08,1.26,25.8,5.2,37.25,11.57c8.62,4.79,16.36,10.92,23.16,18.12v97.04
		c-4.49-3.47-9.21-6.63-14.19-9.4c-14.19-7.9-30.01-12.65-46.22-13.97V46.66z M131.2,76.35c6.79-7.2,14.54-13.34,23.16-18.12
		c11.45-6.37,24.17-10.3,37.24-11.57l-0.12,103.37c-16.21,1.32-32.03,6.07-46.23,13.97c-4.93,2.73-9.6,5.87-14.05,9.29V76.35z"/>
	<g>
		<path class="st0" d="M334.72,82.89c0,1.04-0.54,1.56-1.64,1.56h-31.11v13.74h27.05c1.09,0,1.64,0.52,1.64,1.55v7.95
			c0,1.09-0.55,1.64-1.64,1.64h-27.05v13.13h31.11c1.09,0,1.64,0.52,1.64,1.56v8.03c0,1.1-0.54,1.64-1.64,1.64h-42.95
			c-1.15,0-1.73-0.54-1.73-1.64v-57.2c0-1.09,0.58-1.64,1.73-1.64h42.95c1.09,0,1.64,0.55,1.64,1.64V82.89z"/>
		<path class="st0" d="M398.49,132.24c0.17,0.98-0.26,1.59-1.29,1.81c-2.36,0.69-4.58,1.04-6.65,1.04c-5.36,0-8.99-1.82-10.89-5.45
			c-3.8,3.63-8.58,5.45-14.34,5.45c-6.68,0-12.14-2.08-16.37-6.22c-4.23-4.15-6.35-9.5-6.35-16.07c0-6.62,2.12-12.01,6.35-16.16
			c4.23-4.15,9.69-6.22,16.37-6.22c4.61,0,8.61,1.24,12.01,3.72V71.4c0-1.09,0.54-1.64,1.64-1.64h9.76c1.09,0,1.64,0.55,1.64,1.64
			v49.25c0,2.19,0.95,3.28,2.85,3.28c1.04,0,1.9-0.08,2.59-0.26c1.21-0.11,1.84,0.35,1.9,1.38L398.49,132.24z M366.43,124.98
			c3.22,0,5.85-1.14,7.86-3.42c2.01-2.27,3.02-5.2,3.02-8.77c0-3.63-1.01-6.58-3.02-8.85c-2.02-2.28-4.64-3.42-7.86-3.42
			c-3.29,0-5.97,1.14-8.04,3.42c-2.07,2.27-3.11,5.22-3.11,8.85c0,3.57,1.04,6.5,3.11,8.77
			C360.47,123.84,363.14,124.98,366.43,124.98z"/>
		<path class="st0" d="M458.37,132.24c0.05,0.98-0.38,1.59-1.3,1.81c-2.42,0.69-4.61,1.04-6.56,1.04c-5.59,0-9.45-1.67-11.58-5.01
			c-3.63,3.34-8.53,5.01-14.69,5.01c-5.59,0-10.1-1.74-13.53-5.23c-3.42-3.49-5.14-8.11-5.14-13.87V93.44
			c0-1.09,0.54-1.64,1.64-1.64h9.68c1.09,0,1.64,0.54,1.64,1.64v20.83c0,2.94,0.82,5.3,2.46,7.09c1.64,1.79,3.84,2.68,6.61,2.68
			c2.88,0,5.18-0.85,6.91-2.55c1.73-1.7,2.59-3.96,2.59-6.78V93.44c0-1.09,0.55-1.64,1.64-1.64h9.77c1.09,0,1.64,0.54,1.64,1.64
			v27.14c0,2.25,0.95,3.37,2.85,3.37c1.04,0,1.93-0.08,2.68-0.26c1.09-0.11,1.73,0.35,1.9,1.38L458.37,132.24z"/>
		<path class="st0" d="M487.84,135.09c-7.14,0-12.89-2.05-17.24-6.14c-4.35-4.09-6.52-9.48-6.52-16.16c0-6.74,2.17-12.15,6.52-16.25
			c4.35-4.09,10.09-6.14,17.24-6.14c5.76,0,10.6,1.41,14.52,4.23c3.92,2.82,6.34,6.63,7.26,11.41c0.17,1.15-0.32,1.73-1.47,1.73
			h-9.25c-0.81,0-1.41-0.46-1.81-1.38c-0.63-1.67-1.77-3.01-3.42-4.02c-1.64-1-3.59-1.51-5.83-1.51c-3.4,0-6.14,1.09-8.21,3.28
			c-2.08,2.19-3.11,5.07-3.11,8.64c0,3.57,1.04,6.44,3.11,8.6c2.07,2.16,4.81,3.24,8.21,3.24c2.25,0,4.21-0.49,5.88-1.47
			c1.67-0.98,2.8-2.33,3.37-4.06c0.46-0.92,1.06-1.38,1.81-1.38h9.25c1.15,0,1.64,0.58,1.47,1.73c-0.92,4.78-3.34,8.58-7.26,11.4
			C498.44,133.68,493.6,135.09,487.84,135.09z"/>
		<path class="st0" d="M573.21,132.24c0.12,0.98-0.34,1.59-1.38,1.81c-2.36,0.69-4.52,1.04-6.48,1.04c-5.3,0-8.93-1.76-10.89-5.27
			c-4.03,3.51-8.87,5.27-14.52,5.27c-6.68,0-12.14-2.08-16.37-6.22c-4.23-4.15-6.35-9.5-6.35-16.07c0-6.62,2.12-12.01,6.35-16.16
			c4.23-4.15,9.69-6.22,16.37-6.22c4.78,0,8.87,1.33,12.27,3.97v-0.95c0-1.09,0.54-1.64,1.64-1.64h9.5c1.09,0,1.64,0.54,1.64,1.64
			v27.14c0,2.25,0.95,3.37,2.85,3.37c1.04,0,1.93-0.08,2.67-0.26c1.15-0.11,1.76,0.35,1.82,1.38L573.21,132.24z M541.07,124.98
			c3.22,0,5.85-1.14,7.86-3.42c2.01-2.27,3.02-5.2,3.02-8.77c0-3.63-1.01-6.58-3.02-8.85c-2.02-2.28-4.64-3.42-7.86-3.42
			c-3.29,0-5.97,1.14-8.04,3.42c-2.07,2.27-3.11,5.22-3.11,8.85c0,3.57,1.04,6.5,3.11,8.77
			C535.1,123.84,537.78,124.98,541.07,124.98z"/>
		<path class="st0" d="M602.76,135.09c-7.14,0-12.89-2.05-17.24-6.14c-4.35-4.09-6.52-9.48-6.52-16.16c0-6.74,2.17-12.15,6.52-16.25
			c4.35-4.09,10.09-6.14,17.24-6.14c5.76,0,10.6,1.41,14.52,4.23c3.92,2.82,6.34,6.63,7.26,11.41c0.17,1.15-0.32,1.73-1.47,1.73
			h-9.25c-0.81,0-1.41-0.46-1.81-1.38c-0.63-1.67-1.77-3.01-3.42-4.02c-1.64-1-3.59-1.51-5.83-1.51c-3.4,0-6.14,1.09-8.21,3.28
			c-2.08,2.19-3.11,5.07-3.11,8.64c0,3.57,1.04,6.44,3.11,8.6c2.07,2.16,4.81,3.24,8.21,3.24c2.25,0,4.21-0.49,5.88-1.47
			c1.67-0.98,2.8-2.33,3.37-4.06c0.46-0.92,1.06-1.38,1.81-1.38h9.25c1.15,0,1.64,0.58,1.47,1.73c-0.92,4.78-3.34,8.58-7.26,11.4
			C613.36,133.68,608.52,135.09,602.76,135.09z"/>
		<path class="st0" d="M646.26,82.03c-1.47,1.38-3.3,2.07-5.49,2.07c-2.19,0-4.01-0.69-5.48-2.07c-1.47-1.38-2.21-3.08-2.21-5.1
			c0-2.01,0.74-3.7,2.21-5.05c1.47-1.35,3.3-2.03,5.48-2.03c2.19,0,4.02,0.68,5.49,2.03s2.21,3.04,2.21,5.05
			C648.47,78.95,647.73,80.65,646.26,82.03z M635.94,133.7c-1.09,0-1.64-0.54-1.64-1.64V93.44c0-1.09,0.55-1.64,1.64-1.64h9.68
			c1.09,0,1.64,0.54,1.64,1.64v38.63c0,1.1-0.55,1.64-1.64,1.64H635.94z"/>
		<path class="st0" d="M698.12,128.95c-4.35,4.09-10.1,6.14-17.24,6.14c-7.14,0-12.89-2.05-17.24-6.14
			c-4.35-4.09-6.52-9.48-6.52-16.16c0-6.74,2.17-12.15,6.52-16.25c4.35-4.09,10.09-6.14,17.24-6.14c7.14,0,12.89,2.05,17.24,6.14
			c4.35,4.09,6.52,9.51,6.52,16.25C704.64,119.48,702.46,124.86,698.12,128.95z M672.62,121.22c2.1,2.1,4.85,3.15,8.25,3.15
			c3.4,0,6.15-1.05,8.25-3.15c2.1-2.1,3.16-4.91,3.16-8.43s-1.05-6.34-3.16-8.47c-2.1-2.13-4.85-3.2-8.25-3.2
			c-3.4,0-6.15,1.06-8.25,3.2c-2.1,2.13-3.15,4.95-3.15,8.47S670.52,119.12,672.62,121.22z M676.56,84.88c-0.58,0-1-0.19-1.25-0.56
			c-0.26-0.38-0.25-0.82,0.04-1.34l5.7-10.63c0.4-0.81,1.04-1.21,1.9-1.21h10.19c0.63,0,1.05,0.17,1.25,0.52
			c0.2,0.34,0.1,0.84-0.3,1.47l-7.35,10.8c-0.46,0.63-1.12,0.95-1.99,0.95H676.56z"/>
		<path class="st0" d="M743.69,90.41c5.64,0,10.19,1.74,13.65,5.23c3.46,3.48,5.19,8.11,5.19,13.87v22.55c0,1.1-0.55,1.64-1.64,1.64
			h-9.68c-1.16,0-1.73-0.54-1.73-1.64v-20.82c0-2.94-0.82-5.3-2.46-7.09s-3.84-2.68-6.61-2.68c-2.88,0-5.2,0.85-6.96,2.55
			c-1.76,1.7-2.63,3.96-2.63,6.78v21.26c0,1.1-0.55,1.64-1.64,1.64h-9.68c-1.1,0-1.64-0.54-1.64-1.64v-27.13
			c0-2.25-1.13-3.37-3.37-3.37c-0.23,0-0.86,0.09-1.9,0.26c-1.27,0-1.9-0.46-1.9-1.38v-7.09c0-0.98,0.43-1.61,1.29-1.9
			c1.79-0.69,3.86-1.04,6.22-1.04c4.96,0,8.41,1.81,10.37,5.44C732.2,92.23,737.24,90.41,743.69,90.41z"/>
	</g>
</g>
</svg>
