<svg xmlns="http://www.w3.org/2000/svg" viewBox="0 0 140.1 140.19"><defs><style>.cls-1{fill:none;stroke:#00a6d9;stroke-miterlimit:10;stroke-width:10px;}</style></defs><g id="Capa_2" data-name="Capa 2"><g id="Capa_1-2" data-name="Capa 1"><circle class="cls-1" cx="94.39" cy="94.48" r="28.05"/><line class="cls-1" x1="94.07" y1="48.77" x2="94.07" y2="66.75"/><line class="cls-1" x1="126.48" y1="61.93" x2="113.77" y2="74.64"/><line class="cls-1" x1="140.1" y1="94.15" x2="122.12" y2="94.15"/><line class="cls-1" x1="126.95" y1="126.57" x2="114.23" y2="113.85"/><line class="cls-1" x1="94.72" y1="140.19" x2="94.72" y2="122.21"/><line class="cls-1" x1="62.3" y1="127.03" x2="75.02" y2="114.32"/><line class="cls-1" x1="48.68" y1="94.81" x2="66.67" y2="94.81"/><line class="cls-1" x1="61.84" y1="62.39" x2="74.56" y2="75.11"/><circle class="cls-1" cx="26.73" cy="48.77" r="16.4"/><line class="cls-1" x1="26.54" y1="22.04" x2="26.54" y2="32.55"/><line class="cls-1" x1="45.5" y1="29.73" x2="38.06" y2="37.17"/><line class="cls-1" x1="53.46" y1="48.58" x2="42.94" y2="48.58"/><line class="cls-1" x1="45.77" y1="67.53" x2="38.33" y2="60.1"/><line class="cls-1" x1="26.92" y1="75.5" x2="26.92" y2="64.98"/><line class="cls-1" x1="7.96" y1="67.8" x2="15.4" y2="60.37"/><line class="cls-1" y1="48.96" x2="10.52" y2="48.96"/><line class="cls-1" x1="7.69" y1="30" x2="15.13" y2="37.44"/><circle class="cls-1" cx="78.97" cy="19.2" r="11.78"/><line class="cls-1" x1="78.83" x2="78.83" y2="7.55"/><line class="cls-1" x1="92.45" y1="5.53" x2="87.11" y2="10.87"/><line class="cls-1" x1="98.17" y1="19.06" x2="90.61" y2="19.06"/><line class="cls-1" x1="92.64" y1="32.67" x2="87.3" y2="27.33"/><line class="cls-1" x1="79.11" y1="38.39" x2="79.11" y2="30.84"/><line class="cls-1" x1="65.49" y1="32.87" x2="70.84" y2="27.53"/><line class="cls-1" x1="59.77" y1="19.33" x2="67.33" y2="19.33"/><line class="cls-1" x1="65.3" y1="5.72" x2="70.64" y2="11.06"/></g></g></svg>