<svg xmlns="http://www.w3.org/2000/svg" viewBox="0 0 1007.85 405.04"><defs><style>.cls-1{fill:#00a6d9;}.cls-2{fill:#604289;}.cls-3{fill:#f6e4a9;}.cls-4{fill:#7fbc47;}.cls-5{fill:#fff;}</style></defs><g id="Capa_2" data-name="Capa 2"><g id="Capa_1-2" data-name="Capa 1"><path class="cls-1" d="M414,18.06q4,0,4,3.84V39.83q0,3.84-4,3.84H387.79V113.8q0,3.84-4,3.84H360.47q-4,0-4-3.84V43.67h-26q-4.12,0-4.13-3.84V21.9q0-3.84,4.13-3.84Z"/><path class="cls-1" d="M513.25,114.37c.29,2.37-.76,3.84-3.13,4.41A59.23,59.23,0,0,1,497,120.34q-15.23-.15-21.2-8.25-10.09,8.25-24.32,8.25-16.51,0-26.75-10.53T414.53,82.36q0-16.94,10.24-27.38t26.75-10.46q12.64,0,20.34,7v-.57c0-2.46,1.32-3.7,4-3.7h21.05c2.56,0,3.84,1.24,3.84,3.7V89c0,2.38.29,4,.86,4.91s1.66,1.35,3.27,1.35a18,18,0,0,0,2.56-.14q3.84,0,4.27,3.27ZM456.78,98.29A12.66,12.66,0,0,0,466.88,94q3.69-4.26,3.7-11.66t-3.7-11.59a12.56,12.56,0,0,0-10.1-4.34A12.18,12.18,0,0,0,447,70.84q-3.69,4.41-3.7,11.52T447,93.88A12.18,12.18,0,0,0,456.78,98.29Z"/><path class="cls-1" d="M571.43,44.52q16.65,0,26.89,10.46t10.24,27.38q0,16.94-10.24,27.45t-26.89,10.53q-12.37,0-20.2-7v.43q0,3.84-4,3.84h-21.2q-4,0-4-3.84V16.21q0-3.84,4-3.84h22.19q4,0,4,3.84v34Q559.76,44.53,571.43,44.52Zm-5.26,53.77a12.41,12.41,0,0,0,9.89-4.41q3.77-4.41,3.76-11.52t-3.76-11.52a12.41,12.41,0,0,0-9.89-4.41A12.75,12.75,0,0,0,556,70.77q-3.78,4.33-3.77,11.59T556,94A12.86,12.86,0,0,0,566.17,98.29Z"/><path class="cls-1" d="M644.69,120.34q-12.09,0-18.92-5.19t-6.83-14.44V16.21q0-3.84,4-3.84h22.19q4,0,4,3.84V89.47c0,2.18.31,3.7.92,4.55s1.73,1.28,3.35,1.28a12.76,12.76,0,0,0,2.13-.14q3.84,0,4.27,3.27l1.71,15.94a3.77,3.77,0,0,1-3.13,4.41A59.93,59.93,0,0,1,644.69,120.34Z"/><path class="cls-1" d="M709.56,120.34q-18.93,0-30.37-10.46T667.73,82.36q0-17.07,10.89-27.46t28.94-10.38q19.35,0,29.66,10.31t10.32,27.24v3q0,3.7-4.27,3.7H695.62q2.7,10.53,14.22,10.53a11.32,11.32,0,0,0,7.68-2.71,8.89,8.89,0,0,1,5.12-2.13h19.92a3.73,3.73,0,0,1,3.06,1.14,3.08,3.08,0,0,1,.35,3,29.59,29.59,0,0,1-13.08,16Q723.35,120.34,709.56,120.34ZM695.76,75.1h25.75a12.06,12.06,0,0,0-4.2-7.75,13,13,0,0,0-8.61-2.91,13.32,13.32,0,0,0-8.6,2.91A11.76,11.76,0,0,0,695.76,75.1Z"/><path class="cls-1" d="M819.37,45.52c2.37.56,3.42,2,3.13,4.41l-2.27,19.91q-.43,3.55-4,3.13a29.71,29.71,0,0,0-7.25-.85,16,16,0,0,0-10.67,3.48q-4.12,3.5-4.13,10.46V113.8q0,3.84-4,3.84H768c-2.66,0-4-1.28-4-3.84V75.67q0-3.4-.93-4.62c-.62-.81-1.83-1.21-3.63-1.21h-1.42q-4.12.28-4.12-3.13V50.92a4.25,4.25,0,0,1,3.13-4.27,33.14,33.14,0,0,1,13.23-2.13q12.8,0,18.77,8.53,7.83-8.53,22.34-8.53A25.65,25.65,0,0,1,819.37,45.52Z"/><path class="cls-1" d="M868.45,120.34q-18.78,0-30.16-10.46T826.91,82.36q0-17.07,11.38-27.46t30.16-10.38q18.91,0,30.37,10.38t11.45,27.46q0,17.07-11.45,27.52T868.45,120.34Zm0-23.47c4.45,0,8-1.33,10.74-4a14.12,14.12,0,0,0,4-10.53,14.12,14.12,0,0,0-4-10.53c-2.7-2.65-6.29-4-10.74-4a13.68,13.68,0,0,0-14.51,14.51,13.68,13.68,0,0,0,14.51,14.51Z"/><path class="cls-1" d="M426.19,245a3.75,3.75,0,0,1-3.12,4.4A59.45,59.45,0,0,1,409.41,251q-15.23,0-21.2-9.1-7.53,9.1-23.75,9.1-16.5,0-26.75-10.53T327.47,213q0-16.94,10.24-27.39t26.75-10.45q11.66,0,19.2,5.83V146.85q0-3.84,4-3.84h22.2q3.84,0,3.84,3.84v73.26c0,2.18.33,3.7,1,4.55a4.05,4.05,0,0,0,3.42,1.28,12.76,12.76,0,0,0,2.13-.14q3.84,0,4.27,3.27Zm-56.47-16.08a12.66,12.66,0,0,0,10.1-4.27q3.71-4.26,3.7-11.66t-3.7-11.6a12.58,12.58,0,0,0-10.1-4.33,12.15,12.15,0,0,0-9.81,4.41q-3.71,4.41-3.7,11.52t3.7,11.52A12.15,12.15,0,0,0,369.72,228.93Z"/><path class="cls-1" d="M474.28,251q-18.93,0-30.38-10.46T432.45,213q0-17.07,10.88-27.46t28.95-10.38q19.35,0,29.66,10.31t10.32,27.24v3c0,2.47-1.43,3.7-4.27,3.7H460.34q2.7,10.53,14.22,10.53a11.32,11.32,0,0,0,7.68-2.71,8.89,8.89,0,0,1,5.12-2.13h19.92a3.73,3.73,0,0,1,3.06,1.14,3.07,3.07,0,0,1,.35,3,29.55,29.55,0,0,1-13.09,16Q488.08,251,474.28,251Zm-13.8-45.24h25.75A12,12,0,0,0,482,198a13,13,0,0,0-8.61-2.92,13.31,13.31,0,0,0-8.6,2.92A11.74,11.74,0,0,0,460.48,205.74Z"/><path class="cls-1" d="M601.16,148.7q26.31,0,41.25,13.3t14.94,36.49q0,23.19-14.94,36.48t-41.25,13.31H561.9c-2.66,0-4-1.28-4-3.84v-91.9c0-2.56,1.32-3.84,4-3.84Zm-.57,73.54q11.24,0,18.07-6.47t6.83-17.28q0-10.81-6.83-17.29t-18.07-6.47H589.21v47.51Z"/><path class="cls-1" d="M764.32,245c.29,2.37-.76,3.84-3.13,4.4A58.74,58.74,0,0,1,748.11,251q-15.23-.15-21.2-8.25Q716.82,251,702.59,251q-16.51,0-26.75-10.53T665.6,213q0-16.94,10.24-27.39t26.75-10.45q12.64,0,20.34,7v-.57c0-2.46,1.32-3.7,4-3.7H748c2.56,0,3.84,1.24,3.84,3.7v38.12c0,2.38.29,4,.86,4.91s1.66,1.35,3.27,1.35a18,18,0,0,0,2.56-.14q3.84,0,4.27,3.27Zm-56.47-16.08a12.66,12.66,0,0,0,10.1-4.27q3.69-4.26,3.7-11.66T718,201.4a12.58,12.58,0,0,0-10.1-4.33,12.18,12.18,0,0,0-9.82,4.41q-3.69,4.41-3.7,11.52t3.7,11.52A12.18,12.18,0,0,0,707.85,228.93Z"/><path class="cls-1" d="M815.67,251q-17.2,0-26.24-8.68t-9-25V202.33H770c-2.66,0-4-1.23-4-3.7V181.56c0-2.46,1.32-3.7,4-3.7h10.38v-16.5c0-2.46,1.33-3.7,4-3.7h22.19c2.65,0,4,1.24,4,3.7v16.5h18.21c2.65,0,4,1.24,4,3.7v17.07q0,3.7-4,3.7H810.55v13.8q0,9,11,9a43.47,43.47,0,0,0,9.1-1q4.27-.71,4.69,3.13L837.44,244c.28,2.37-.71,3.84-3,4.41A71,71,0,0,1,815.67,251Z"/><path class="cls-1" d="M884,251q-18.78,0-30.15-10.46T842.42,213q0-17.07,11.38-27.46T884,175.16q18.91,0,30.37,10.38T925.77,213q0,17.07-11.45,27.52T884,251Zm0-23.47q6.69,0,10.74-4a15.67,15.67,0,0,0,0-21.05q-4.05-4-10.74-4a14.52,14.52,0,1,0,0,29Z"/><path class="cls-1" d="M969.73,251q-15.79,0-26.18-5.9t-12.23-16a2.85,2.85,0,0,1,.57-2.84,4.29,4.29,0,0,1,3.13-1h18.63q2,0,4.56,2.56,2.84,3.56,11.38,3.56,7.24,0,7.25-3.56c0-1.71-1.47-2.91-4.41-3.63a88.49,88.49,0,0,0-10.6-1.77A90.64,90.64,0,0,1,949.39,220a20.4,20.4,0,0,1-10.67-6.9q-4.41-5.26-4.41-14.08,0-10.81,9.67-17.36t25.32-6.54q15.08,0,25,5.76t11.88,15.43a3.05,3.05,0,0,1-.79,2.85,4.34,4.34,0,0,1-3.06,1H984a5.13,5.13,0,0,1-4.26-2.28q-2.43-3.84-9.53-3.84-7.7,0-7.69,3.27,0,2.57,4.7,3.91a89.33,89.33,0,0,0,11.31,2.35,102.32,102.32,0,0,1,13.3,2.92,23.78,23.78,0,0,1,11.38,7.18q4.7,5.26,4.69,13.66,0,11.37-9.81,17.49T969.73,251Z"/><path class="cls-2" d="M339.84,277.88H878.31a0,0,0,0,1,0,0v99a16,16,0,0,1-16,16H323.84a0,0,0,0,1,0,0v-99A16,16,0,0,1,339.84,277.88Z"/><path class="cls-3" d="M390.44,373.62q-15.92,0-26-9.78t-10.07-25.21q0-15.44,10.07-25.12t26-9.68a35.22,35.22,0,0,1,20.95,6.37,29.45,29.45,0,0,1,11.74,17.21c.2.83-.16,1.25-1.05,1.25h-6.52a1.2,1.2,0,0,1-1.25-.87,21.85,21.85,0,0,0-8.67-11.88,26.08,26.08,0,0,0-15.2-4.41q-12.07,0-19.7,7.57t-7.62,19.56q0,12.08,7.62,19.65t19.7,7.58a26.26,26.26,0,0,0,15.1-4.32,21.86,21.86,0,0,0,8.77-11.79,1.25,1.25,0,0,1,1.25-1.06h6.52c.89,0,1.25.42,1.05,1.25a29.15,29.15,0,0,1-11.69,17.26A35.27,35.27,0,0,1,390.44,373.62Z"/><path class="cls-3" d="M497,363.75q-10.22,9.87-25.84,9.87t-25.84-9.87q-10.21-9.87-10.21-25t10.21-25q10.21-9.87,25.84-9.87T497,313.7q10.2,9.87,10.21,25T497,363.75Zm-45.5-5.37q7.77,7.67,19.66,7.67t19.65-7.67q7.77-7.68,7.77-19.66t-7.77-19.65q-7.77-7.67-19.65-7.67t-19.66,7.67q-7.75,7.67-7.76,19.65T451.51,358.38Z"/><path class="cls-3" d="M546.43,372.28a1.19,1.19,0,0,1-1.25-.86l-30.87-64.91c-.45-.89-.16-1.34.86-1.34h6.91a1.25,1.25,0,0,1,1.34.86l26.08,55.51,26-55.51a1.17,1.17,0,0,1,1.24-.86h6.91c1,0,1.31.45.86,1.34l-30.68,64.91a1.49,1.49,0,0,1-1.34.86Z"/><path class="cls-3" d="M592.35,372.28a1,1,0,0,1-1.15-1.15v-5.08a1,1,0,0,1,1.15-1.15h11.32V312.55H592.35a1,1,0,0,1-1.15-1.15v-5.08a1,1,0,0,1,1.15-1.15h31.16a1,1,0,0,1,1.15,1.15v5.08a1,1,0,0,1-1.15,1.15H612.2V364.9h11.31a1,1,0,0,1,1.15,1.15v5.08a1,1,0,0,1-1.15,1.15Z"/><path class="cls-3" d="M661.76,305.17q16.69,0,26.75,9.15t10.07,24.4q0,15.25-10.07,24.4t-26.75,9.16h-23a1,1,0,0,1-1.16-1.15V306.32a1,1,0,0,1,1.16-1.15Zm-.86,59.73q13.14,0,21.05-7.14t7.91-19q0-11.88-7.91-19t-21.05-7.14H646V364.9Z"/><path class="cls-3" d="M716.13,350.32a1,1,0,0,1-1.15-1.15v-5.36a1,1,0,0,1,1.15-1.16h31.54a1,1,0,0,1,1.15,1.16v5.36a1,1,0,0,1-1.15,1.15Z"/><path class="cls-3" d="M781.22,305.17c.71,0,1.06.38,1.06,1.15v64.81a1,1,0,0,1-1.15,1.15H775a1,1,0,0,1-1.15-1.15V312.36H757c-.9,0-1.35-.35-1.35-1.06v-5.08q0-1.05,1-1.05Z"/><path class="cls-3" d="M822.35,303.83q11.42,0,18.55,6.28a20.7,20.7,0,0,1,7.15,16.34q0,7.19-5.66,15.34l-21.95,29.72a1.74,1.74,0,0,1-1.44.77h-7.29c-1.15,0-1.41-.48-.77-1.44l16.59-22.53a20.46,20.46,0,0,1-5.18.67q-11.7,0-18.69-6.23a20.55,20.55,0,0,1-7-16.11q0-10.25,7.09-16.53T822.35,303.83Zm-12.6,33.79c3.22,2.91,7.43,4.36,12.6,4.36s9.4-1.47,12.66-4.41a15.75,15.75,0,0,0,0-22.81q-4.89-4.41-12.66-4.42c-5.17,0-9.38,1.48-12.6,4.42a14.82,14.82,0,0,0-4.85,11.5A14.57,14.57,0,0,0,809.75,337.62Z"/><ellipse class="cls-3" cx="142.67" cy="344.59" rx="135.37" ry="53.09" transform="translate(-4.26 1.8) rotate(-0.71)"/><path class="cls-4" d="M139.63,405a336.35,336.35,0,0,1-47-3.25c-49.53-7-83.58-24.41-91.08-46.51-2.73-8-3.26-20.4,9.73-33.66,28.91-29.51,108.58-44.54,181.38-34.22,49.52,7,83.57,24.41,91.08,46.51,2.73,8,3.25,20.4-9.73,33.66C251.29,390.78,197.13,405,139.63,405ZM147,298.8c-53.58,0-105.57,12.8-125.33,33-6.38,6.5-8.45,12.66-6.36,18.83C19.53,363,42.84,380.06,94.7,387.42c66.42,9.42,143.8-4.32,169-30,6.37-6.5,8.45-12.66,6.35-18.83-4.2-12.38-27.51-29.45-79.37-36.81A312.83,312.83,0,0,0,147,298.8Z"/><path class="cls-5" d="M249.51,114.8C249.51,174.19,142,340.11,142,340.11S34.44,174.19,34.44,114.8a107.54,107.54,0,1,1,215.07,0Z"/><path class="cls-4" d="M142,353.46l-6.1-9.4c-4.43-6.85-108.7-168.43-108.7-229.26a114.8,114.8,0,1,1,229.59,0c0,60.83-104.27,222.41-108.7,229.26Zm0-338.94A100.4,100.4,0,0,0,41.69,114.8c0,23,18.27,68.48,52.84,131.36,18.9,34.39,38,65.38,47.45,80.42,9.45-15,28.54-46,47.44-80.42C224,183.28,242.26,137.85,242.26,114.8A100.39,100.39,0,0,0,142,14.52Z"/><circle class="cls-3" cx="141.98" cy="108.39" r="42.42"/><path class="cls-4" d="M142,158.08a49.69,49.69,0,1,1,49.68-49.69A49.75,49.75,0,0,1,142,158.08Zm0-84.85a35.17,35.17,0,1,0,35.16,35.16A35.2,35.2,0,0,0,142,73.23Z"/><rect class="cls-4" x="134.22" y="39.26" width="14.52" height="27.2"/><rect class="cls-4" x="167.29" y="61.52" width="27.2" height="14.52" transform="translate(4.35 148.06) rotate(-45)"/><rect class="cls-4" x="183.91" y="100.64" width="27.2" height="14.52"/><rect class="cls-4" x="174.33" y="133.71" width="14.52" height="27.2" transform="translate(-50.98 171.55) rotate(-45)"/><rect class="cls-4" x="135.21" y="150.33" width="14.52" height="27.2"/><rect class="cls-4" x="89.46" y="140.75" width="27.2" height="14.52" transform="translate(-74.47 116.22) rotate(-45)"/><rect class="cls-4" x="72.84" y="101.63" width="27.2" height="14.52"/><rect class="cls-4" x="95.1" y="55.88" width="14.52" height="27.2" transform="translate(-19.15 92.73) rotate(-45)"/><circle class="cls-4" cx="126.61" cy="98.79" r="7.04"/><circle class="cls-4" cx="153.5" cy="105.19" r="10.88"/><circle class="cls-4" cx="133.01" cy="119.28" r="5.76"/></g></g></svg>